<?xml version="1.0" encoding="UTF-8"?><svg id="a" xmlns="http://www.w3.org/2000/svg" viewBox="0 0 111 111"><ellipse cx="54.97" cy="55.41" rx="52.82" ry="52.18" fill="none" stroke="#fff" stroke-miterlimit="10" stroke-width="3"/><path d="m46.26,105.97v-34.47c0-.12-.1-.22-.22-.22h-13.11c-.12,0-.22-.1-.22-.22v-14.38c0-.12.1-.22.22-.22h13.11c.12,0,.22-.1.22-.22v-15.48s0-.03.01-.04c1.44-8.6,8.6-15.13,17.39-15.85,0,0,.02,0,.03,0h13.32c.12,0,.22.1.22.22v14.42c0,.12-.1.22-.22.22l-7.32.11c-4.81.07-8.55,4.17-8.11,8.91l.04,6.81c0,.12.1.22.22.22l15.17.18c.12,0,.22.1.22.22v14.17c0,.12-.1.22-.22.22h-13.59c-.12,0-.22.1-.22.22l-.24,35.19c0,.12-.1.22-.22.22h-16.25c-.12,0-.22-.1-.22-.22Z" fill="none" stroke="#fff" stroke-miterlimit="10" stroke-width="3"/></svg>