<?xml version="1.0" encoding="UTF-8"?><svg id="b" xmlns="http://www.w3.org/2000/svg" viewBox="0 0 111 111"><ellipse cx="55.61" cy="55.04" rx="52.18" ry="52.82" fill="none" stroke="#fff" stroke-miterlimit="10" stroke-width="3"/><path d="m23.56,15.83v71h72V15.83H23.56Zm63.65,57.96c0,6.35-5.15,11.5-11.5,11.5h-38.26c-6.35,0-11.5-5.15-11.5-11.5v-37.52c0-6.35,5.15-11.5,11.5-11.5h38.26c6.35,0,11.5,5.15,11.5,11.5v37.52Z" fill="none"/><path d="m75.7,24.78h-38.26c-6.35,0-11.5,5.15-11.5,11.5v37.52c0,6.35,5.15,11.5,11.5,11.5h38.26c6.35,0,11.5-5.15,11.5-11.5v-37.52c0-6.35-5.15-11.5-11.5-11.5Zm-19.13,44.87c-8.17,0-14.79-6.54-14.79-14.61s6.62-14.61,14.79-14.61,14.79,6.54,14.79,14.61-6.62,14.61-14.79,14.61Z" fill="none" stroke="#fff" stroke-miterlimit="10" stroke-width="3"/><ellipse cx="56.57" cy="55.04" rx="14.79" ry="14.61" fill="none" stroke="#fff" stroke-miterlimit="10" stroke-width="4"/><ellipse cx="74.91" cy="36.82" rx="3.86" ry="3.91" transform="translate(2.54 78.41) rotate(-56.06)" fill="#fff"/></svg>