<?xml version="1.0" encoding="UTF-8"?><svg id="b" xmlns="http://www.w3.org/2000/svg" viewBox="0 0 111 111"><ellipse cx="55.66" cy="56.19" rx="52.82" ry="52.18" fill="none" stroke="#fff" stroke-miterlimit="10" stroke-width="3"/><path d="m40.25,29.59c0,3.27-2.55,5.91-6.52,5.91s-6.37-2.64-6.29-5.91c-.08-3.42,2.47-5.99,6.36-5.99s6.37,2.57,6.44,5.99Zm-12.49,48.6v-38.02h12.09v38.02h-12.09Z" fill="none" stroke="#fff" stroke-miterlimit="10" stroke-width="3"/><path d="m49.56,52.29c0-4.74-.16-8.79-.32-12.13h10.5l.56,5.21h.24c1.59-2.41,5.57-6.07,12.01-6.07,7.96,0,13.92,5.13,13.92,16.33v22.55h-12.09v-21.07c0-4.9-1.75-8.24-6.13-8.24-3.34,0-5.33,2.25-6.13,4.43-.32.7-.48,1.87-.48,2.95v21.93h-12.09v-25.89Z" fill="none" stroke="#fff" stroke-miterlimit="10" stroke-width="3"/></svg>