<?xml version="1.0" encoding="UTF-8"?><svg id="b" xmlns="http://www.w3.org/2000/svg" viewBox="0 0 111 111"><ellipse cx="55.45" cy="55.99" rx="52.82" ry="52.18" fill="none" stroke="#fff" stroke-miterlimit="10" stroke-width="3"/><path d="m53.81,20.43h10.89c.12,1.37.74,6.47,5.08,10.76,4.34,4.29,9.5,4.9,10.89,5.02v11.48l-13.43-4.3v22.87c0,5.88-2.41,11.61-6.95,15.41-.33.28-.68.55-1.04.82-6.9,5.07-14.46,4.16-15.97,3.95-1.89-.24-8.66-1.34-14.16-7.17-5.15-5.46-5.99-11.67-6.17-13.63-.02-1.14.01-10.63,7.99-16.86,6.63-5.18,14.73-4.42,16.23-4.25l-.26,11.42c-4.8-.64-9.27,2.22-10.53,6.46-1.07,3.61.37,7.66,3.63,10.04.29.21,3.98,2.7,8.35,1.08,4.3-1.6,5.43-5.77,5.53-6.14l-.08-46.94Z" fill="#71cde0"/><path d="m57.45,22.89h10.89c.12,1.37.74,6.47,5.08,10.76,4.34,4.29,9.5,4.9,10.89,5.02v11.48l-13.43-4.3v22.87c0,5.88-2.41,11.61-6.95,15.41-.33.28-.68.55-1.04.82-6.9,5.07-14.46,4.16-15.97,3.95-1.89-.24-8.66-1.34-14.16-7.17-5.15-5.46-5.99-11.67-6.17-13.63-.02-1.14.01-10.63,7.99-16.86,6.63-5.18,14.73-4.42,16.23-4.25l-.26,11.42c-4.8-.64-9.27,2.22-10.53,6.46-1.07,3.61.37,7.66,3.63,10.04.29.21,3.98,2.7,8.35,1.08,4.3-1.6,5.43-5.77,5.53-6.14l-.08-46.94Z" fill="#ef4343"/><path d="m46.91,55.94s-.05,0-.13,0c-14.49.05-12.12,15.24-4.85,17.4,5.11,4.54,12.45,4.22,15.6-3.51l-.08-46.94h7.66c.61,1.97,1.9,5.18,4.67,8.3,4.02,4.52,8.79,6.17,10.89,6.76v9.74l-13.43-4.3.15,23.39c-.09,1.81-.65,8.6-6.12,13.85-2.78,2.67-5.78,4.31-7.66,4.91-1.66.7-6.18,1.96-11.81.77-4.61-.98-7.67-3.38-9.04-4.6-1.27-1.16-4.63-4.55-5.83-10.14-1.38-6.44,1.04-11.51,1.78-12.93.78-1.63,2.89-5.55,7.47-8.39,3.17-1.97,6.88-3.06,10.67-3.13l.06,8.82Z" fill="#fff" stroke="#fff" stroke-miterlimit="10" stroke-width=".25"/></svg>