<?xml version="1.0" encoding="UTF-8"?><svg id="b" xmlns="http://www.w3.org/2000/svg" viewBox="0 0 111 111"><path d="m30.18,31.26c-4.71,10.08,2.93,17.68,4.74,18.88-1.54.94-6.47-2.87-6.47-2.87-.24,8.07,9.35,13.04,9.35,13.04-.69,1.16-4.15.11-4.15.11,1.57,7.01,10.34,11.22,11.11,10.96-.19,4.28-17.86,5.61-17.86,5.61,5.41,11.53,59.04,12.93,58.92-33.63,1.82-1.52,3.87-2.39,6.29-7.41-.42.88-4.66,2.03-7.14,2.07,1.03-.68,2.27-1.66,3.45-3.14,2.85-3.59,2.36-4.54,2.36-4.54-4.06,2.57-9.07,3.11-9.07,3.11,0,0-4.38-3.62-8.13-4.03-4.94-.54-8.54,1.86-8.54,1.86-7.74,4.5-5.92,13.74-5.92,13.74-5.8,1.33-15.34-.11-28.93-13.74Z" fill="none" stroke="#fff" stroke-miterlimit="10" stroke-width="3"/><ellipse cx="55.73" cy="53.82" rx="52.82" ry="52.18" fill="none" stroke="#fff" stroke-miterlimit="10" stroke-width="3"/></svg>