<?xml version="1.0" encoding="UTF-8"?><svg id="b" xmlns="http://www.w3.org/2000/svg" viewBox="0 0 111 111"><ellipse cx="55.69" cy="55.53" rx="52.82" ry="52.18" fill="none" stroke="#fff" stroke-miterlimit="10" stroke-width="3"/><path d="m78.32,79.3c-6.55.67-13.77,1.11-21.54,1.15-8.62.04-16.57-.42-23.71-1.15-.77,0-4.89-.08-8.21-3.36-2.1-2.08-3.4-4.95-3.4-8.12v-24.63c0-6.34,5.2-11.48,11.62-11.48,6.76-.67,14.21-1.11,22.26-1.12,8.34-.01,16.04.43,23,1.12.77,0,4.89.08,8.21,3.36,2.1,2.08,3.4,4.95,3.4,8.12v24.63c0,6.34-4.36,10.59-11.62,11.48Z" fill="#dd2826" stroke="#fff" stroke-miterlimit="10" stroke-width="3"/><polygon points="66.39 55.83 49.07 46.01 49.07 65.65 66.39 55.83" fill="#fff" stroke="#fff" stroke-miterlimit="10" stroke-width="3"/></svg>