<?xml version="1.0" encoding="UTF-8"?><svg xmlns="http://www.w3.org/2000/svg" xmlns:xlink="http://www.w3.org/1999/xlink" viewBox="0 0 2286 1061.99"><defs><style>.j{fill:none;stroke:#000;}.j,.k,.l,.m{stroke-miterlimit:10;}.k{fill:url(#h);stroke:url(#i);}.k,.l,.m{stroke-width:60px;}.l{fill:url(#e);stroke:url(#f);}.m{fill:url(#b);stroke:url(#c);}</style><linearGradient id="b" x1="141.5" y1="530.99" x2="2061.5" y2="530.99" gradientTransform="matrix(1, 0, 0, 1, 0, 0)" gradientUnits="userSpaceOnUse"><stop offset=".03" stop-color="#ad1301"/><stop offset=".12" stop-color="#a61102"/><stop offset="1" stop-color="#650310"/></linearGradient><linearGradient id="c" x1="111.5" y1="531" x2="2091.5" y2="531" gradientTransform="matrix(1, 0, 0, 1, 0, 0)" gradientUnits="userSpaceOnUse"><stop offset="0" stop-color="#650310"/><stop offset=".46" stop-color="#a61102"/><stop offset=".51" stop-color="#ad1301"/><stop offset="1" stop-color="#fff" stop-opacity="0"/></linearGradient><linearGradient id="e" x1="30" y1="639.77" x2="2256" y2="639.77" gradientTransform="matrix(1, 0, 0, 1, 0, 0)" gradientUnits="userSpaceOnUse"><stop offset=".49" stop-color="#ffb640"/><stop offset=".69" stop-color="#f58725"/><stop offset="1" stop-color="#e94701"/></linearGradient><linearGradient id="f" x1="0" y1="639.77" x2="2286" y2="639.77" gradientTransform="matrix(1, 0, 0, 1, 0, 0)" gradientUnits="userSpaceOnUse"><stop offset="0" stop-color="#e94701"/><stop offset=".31" stop-color="#f58725"/><stop offset=".51" stop-color="#ffb640"/><stop offset="1" stop-color="#fff" stop-opacity="0"/></linearGradient><linearGradient id="h" x1="30" y1="882.87" x2="2256" y2="882.87" gradientTransform="matrix(1, 0, 0, 1, 0, 0)" gradientUnits="userSpaceOnUse"><stop offset="0" stop-color="#fff" stop-opacity="0"/><stop offset="0" stop-color="#eae2b7"/><stop offset="1" stop-color="#ffb640"/></linearGradient><linearGradient id="i" x1="0" y1="882.87" x2="2286" y2="882.87" gradientTransform="matrix(1, 0, 0, 1, 0, 0)" gradientUnits="userSpaceOnUse"><stop offset="0" stop-color="#ffb640"/><stop offset=".49" stop-color="#eae2b7" stop-opacity=".51"/><stop offset="1" stop-color="#fff" stop-opacity="0"/></linearGradient></defs><g id="a"><path class="m" d="M2061.5,48.97v982l-1920,1v-381c43.68,50.76,122.98,129.86,244,188,277.33,133.24,540.39,44.32,575,32,200.36-71.33,311.62-233.07,430-398,83.14-115.83,120.29-199.36,160.35-263.89,30.78-49.56,63.27-87.92,119.65-121.11,131.51-77.41,284.27-62.68,391-39Z"/><line class="j" x1="2061.5" y1="48.97" x2="2061.5" y2="49.97"/></g><g id="d"><path class="l" d="M2256,263.29v766.99l-2226,.78v-297.58c50.64,39.65,142.58,101.43,282.89,146.84,321.53,104.07,626.51,34.62,666.64,24.99,232.29-55.71,361.28-182.04,498.53-310.86,96.39-90.47,139.46-155.71,185.91-206.11,35.69-38.71,73.35-68.67,138.72-94.59,152.47-60.46,329.58-48.96,453.32-30.46Z"/><line class="j" x1="2061.5" y1="48.97" x2="2061.5" y2="49.97"/></g><g id="g"><path class="k" d="M2256,740.09v290.86l-2226,.3v-112.85c50.64,15.03,142.58,38.46,282.89,55.68,321.53,39.47,626.51,13.13,666.64,9.48,232.29-21.13,361.28-69.03,498.53-117.89,96.39-34.31,139.46-59.05,185.91-78.16,35.69-14.68,73.35-26.04,138.72-35.87,152.47-22.93,329.58-18.57,453.32-11.55Z"/><line class="j" x1="2061.5" y1="48.97" x2="2061.5" y2="49.97"/></g></svg>