<?xml version="1.0" encoding="UTF-8"?><svg id="a" xmlns="http://www.w3.org/2000/svg" viewBox="0 0 108.64 107.36"><defs><style>.b{fill:#dd2826;}.b,.c{stroke:#fff;stroke-miterlimit:10;stroke-width:3px;}.c{fill:none;}</style></defs><ellipse class="c" cx="54.32" cy="53.68" rx="52.82" ry="52.18"/><path class="b" d="M43.16,104.24v-34.47c0-.12-.1-.22-.22-.22h-13.11c-.12,0-.22-.1-.22-.22v-14.38c0-.12,.1-.22,.22-.22h13.11c.12,0,.22-.1,.22-.22v-15.48s0-.03,0-.04c1.44-8.6,8.6-15.13,17.39-15.85h13.35c.12,0,.22,.1,.22,.22v14.42c0,.12-.1,.22-.22,.22l-7.32,.11c-4.81,.07-8.55,4.17-8.11,8.91l.04,6.81c0,.12,.1,.22,.22,.22l15.17,.18c.12,0,.22,.1,.22,.22v14.17c0,.12-.1,.22-.22,.22h-13.59c-.12,0-.22,.1-.22,.22l-.24,35.19c0,.12-.1,.22-.22,.22h-16.25c-.12,0-.22-.1-.22-.22h0Z"/><path class="c" d="M45.6,104.24v-34.47c0-.12-.1-.22-.22-.22h-13.11c-.12,0-.22-.1-.22-.22v-14.38c0-.12,.1-.22,.22-.22h13.11c.12,0,.22-.1,.22-.22v-15.48s0-.03,0-.04c1.44-8.6,8.6-15.13,17.39-15.85h13.35c.12,0,.22,.1,.22,.22v14.42c0,.12-.1,.22-.22,.22l-7.32,.11c-4.81,.07-8.55,4.17-8.11,8.91l.04,6.81c0,.12,.1,.22,.22,.22l15.17,.18c.12,0,.22,.1,.22,.22v14.17c0,.12-.1,.22-.22,.22h-13.59c-.12,0-.22,.1-.22,.22l-.24,35.19c0,.12-.1,.22-.22,.22h-16.25c-.12,0-.22-.1-.22-.22h0Z"/></svg>