<?xml version="1.0" encoding="UTF-8"?><svg id="a" xmlns="http://www.w3.org/2000/svg" xmlns:xlink="http://www.w3.org/1999/xlink" viewBox="0 0 1920 1078.7"><defs><style>.j,.k{opacity:.5;}.l{filter:url(#f);}.l,.m,.n{font-family:DoppioOne-Regular, DoppioOne Regular;}.l,.o,.p{font-size:232.78px;}.l,.q{fill:#f99c1c;}.r,.s,.t{fill:#fbf7c1;font-family:SegoeUISymbol, Segoe UI Symbol;}.r,.n,.p{letter-spacing:-.01em;}.u{fill:#113;}.m,.n{fill:#ffeebe;}.o{filter:url(#h);}.v{letter-spacing:-.01em;}.k,.w,.x{fill:none;}.k,.w,.x,.q{stroke-miterlimit:10;}.k,.w,.q{stroke:#dd2826;stroke-width:10px;}.x{filter:url(#b);stroke:#f99c1c;stroke-width:15px;}.t{letter-spacing:-.02em;}.y{fill:#dd2826;}.p{filter:url(#d);}</style><filter id="b" filterUnits="userSpaceOnUse"><feOffset dx="7" dy="7"/><feGaussianBlur result="c" stdDeviation="5"/><feFlood flood-color="#000" flood-opacity=".75"/><feComposite in2="c" operator="in"/><feComposite in="SourceGraphic"/></filter><filter id="d" filterUnits="userSpaceOnUse"><feOffset dx="7" dy="7"/><feGaussianBlur result="e" stdDeviation="5"/><feFlood flood-color="#000" flood-opacity=".75"/><feComposite in2="e" operator="in"/><feComposite in="SourceGraphic"/></filter><filter id="f" filterUnits="userSpaceOnUse"><feOffset dx="7" dy="7"/><feGaussianBlur result="g" stdDeviation="5"/><feFlood flood-color="#000" flood-opacity=".75"/><feComposite in2="g" operator="in"/><feComposite in="SourceGraphic"/></filter><filter id="h" filterUnits="userSpaceOnUse"><feOffset dx="10" dy="10"/><feGaussianBlur result="i" stdDeviation="15"/><feFlood flood-color="#000" flood-opacity="1"/><feComposite in2="i" operator="in"/><feComposite in="SourceGraphic"/></filter></defs><g><rect class="u" x=".5" y=".5" width="1919" height="867"/><path d="M1919,1V867H1V1H1919m1-1H0V868H1920V0h0Z"/></g><g class="j"><path class="y" d="M685.07,428.94l.03,3.6v-3.61h-.03Z"/><path class="y" d="M766.15,409.01l28.72-46.37-8.5-5.27-29.54,47.7-61.73,20.53v-56.94h-10v63.88l.54,77.46,77.26,24.51,47.19-65.91-43.94-59.59Zm-7.15,113.77l-63.41-20.12-.47-66.52,63.13-21,39.48,53.55-38.73,54.09Z"/></g><g><polyline class="w" points="1095 293.18 1025.21 281.41 982.21 330.97 908.38 319.84 860.44 372.08 790.62 360 790.62 360"/><line class="w" x1="792.96" y1="363.78" x2="766.92" y2="296.73"/><line class="w" x1="1024.64" y1="282.36" x2="1000.77" y2="220.91"/><ellipse class="q" cx="757.85" cy="274.33" rx="22.3" ry="22.06" transform="translate(358.95 974.66) rotate(-80.23)"/><ellipse class="q" cx="992.2" cy="199.3" rx="22.3" ry="22.06" transform="translate(627.48 1143.31) rotate(-80.23)"/><ellipse class="q" cx="1117.39" cy="295.67" rx="21.48" ry="22.06" transform="translate(813 1410.72) rotate(-89.55)"/></g><g><line class="w" x1="486.52" y1="620.33" x2="533.86" y2="647.85"/><line class="w" x1="324.76" y1="629.24" x2="254.32" y2="665.75"/><ellipse class="q" cx="254.32" cy="665.75" rx="22.33" ry="22.03" transform="translate(-457.69 635.09) rotate(-66.63)"/><polygon class="w" points="468.65 556.32 532.1 519.68 595.56 556.32 595.56 629.59 532.1 666.22 468.65 629.59 468.65 556.32"/><polygon class="x" points="606.65 539.05 543.51 502.6 543.51 429.69 606.65 393.24 669.79 429.69 669.79 502.6 606.65 539.05"/><polygon class="w" points="324.76 555.97 388.21 519.34 451.67 555.97 451.67 629.24 388.21 665.88 324.76 629.24 324.76 555.97"/><line class="k" x1="467.3" y1="563.6" x2="467.3" y2="500.44"/></g><text/><text class="p" transform="translate(254.72 507.33) scale(1.02 1)"><tspan class="s" x="0" y="0">Ch</tspan><tspan class="m" x="270.27" y="0"> </tspan></text><text class="l" transform="translate(1228.27 519.24) scale(1.02 1)"><tspan class="v" x="0" y="0">L</tspan><tspan x="106.61" y="0">ock</tspan></text><text class="o" transform="translate(673.99 507.62) scale(1.02 1)"><tspan class="r" x="0" y="0">les</tspan><tspan class="t" x="268.5" y="0">t</tspan><tspan class="r" x="342.76" y="0">er</tspan><tspan class="n" x="539.83" y="0"> </tspan></text></svg>