<?xml version="1.0" encoding="UTF-8"?><svg id="a" xmlns="http://www.w3.org/2000/svg" viewBox="0 0 110.3 109.53"><path d="m57.4,21.41h10.89c.12,1.37.74,6.47,5.08,10.76,4.34,4.29,9.5,4.9,10.89,5.02v11.48l-13.43-4.3v22.87c0,5.88-2.41,11.61-6.95,15.41-.33.28-.68.55-1.04.82-6.9,5.07-14.46,4.16-15.97,3.95-1.89-.24-8.66-1.34-14.16-7.17-5.15-5.46-5.99-11.67-6.17-13.63-.02-1.14.01-10.63,7.99-16.86,6.63-5.18,14.73-4.42,16.23-4.25l-.26,11.42c-4.8-.64-9.27,2.22-10.53,6.46-1.07,3.61.37,7.66,3.63,10.04.29.21,3.98,2.7,8.35,1.08,4.3-1.6,5.43-5.77,5.53-6.14l-.08-46.94Z" fill="none" stroke="#fff" stroke-miterlimit="10" stroke-width="3"/><ellipse cx="55.4" cy="54.8" rx="52.82" ry="52.18" fill="none" stroke="#fff" stroke-miterlimit="10" stroke-width="3"/></svg>