<?xml version="1.0" encoding="UTF-8"?><svg id="a" xmlns="http://www.w3.org/2000/svg" viewBox="0 0 110.81 109.53"><path d="m78.02,78.58c-6.55.67-13.77,1.11-21.54,1.15-8.62.04-16.57-.42-23.71-1.15-.77,0-4.89-.08-8.21-3.36-2.1-2.08-3.4-4.95-3.4-8.12v-24.63c0-6.34,5.2-11.48,11.62-11.48,6.76-.67,14.21-1.11,22.26-1.12,8.34-.01,16.04.43,23,1.12.77,0,4.89.08,8.21,3.36,2.1,2.08,3.4,4.95,3.4,8.12v24.63c0,6.34-4.36,10.59-11.62,11.48Z" fill="none" stroke="#fff" stroke-miterlimit="10" stroke-width="3"/><polygon points="66.09 55.1 48.76 45.28 48.76 64.92 66.09 55.1" fill="#fff" stroke="#fff" stroke-miterlimit="10"/><path d="m55.39,2.62c29.17,0,52.82,23.36,52.82,52.18" fill="none" stroke="#fff" stroke-miterlimit="10" stroke-width="3"/><path d="m2.57,54.8C2.57,25.98,26.22,2.62,55.39,2.62" fill="none" stroke="#fff" stroke-miterlimit="10" stroke-width="3"/><path d="m55.39,106.98c-29.17,0-52.82-23.36-52.82-52.18" fill="none" stroke="#fff" stroke-miterlimit="10" stroke-width="3"/><path d="m108.21,54.8c0,28.82-23.65,52.18-52.82,52.18" fill="none" stroke="#fff" stroke-miterlimit="10" stroke-width="3"/></svg>